<svg width="20" height="20" viewBox="0 0 20 20" fill="none" xmlns="http://www.w3.org/2000/svg">
<circle cx="10" cy="10" r="10" fill="#FFCE51"/>
<g clip-path="url(#clip0_643_1957)">
<ellipse cx="10.8343" cy="11.6667" rx="2.08333" ry="2.91667" fill="#FFCE51"/>
<path d="M14.1566 10.196C13.2844 7.92938 10.1789 7.80715 10.9289 4.51271C10.9844 4.26826 10.7233 4.07937 10.5122 4.20715C8.49553 5.39604 7.04553 7.77937 8.2622 10.9016C8.3622 11.1572 8.0622 11.396 7.84553 11.2294C6.83997 10.4683 6.73442 9.37382 6.82331 8.59049C6.85664 8.3016 6.47886 8.16271 6.31775 8.4016C5.93997 8.97937 5.55664 9.91271 5.55664 11.3183C5.76775 14.4294 8.39553 15.3849 9.33997 15.5072C10.69 15.6794 12.1511 15.4294 13.2011 14.4683C14.3566 13.396 14.7789 11.6849 14.1566 10.196ZM9.00108 12.9905C9.80108 12.796 10.2122 12.2183 10.3233 11.7072C10.5066 10.9127 9.78997 10.1349 10.2733 8.87937C10.4566 9.91826 12.09 10.5683 12.09 11.7016C12.1344 13.1072 10.6122 14.3127 9.00108 12.9905Z" fill="#FF7324"/>
</g>
<defs>
<clipPath id="clip0_643_1957">
<rect width="13.3333" height="13.3333" fill="white" transform="translate(3.33398 3.33398)"/>
</clipPath>
</defs>
</svg>
