<svg xmlns="http://www.w3.org/2000/svg" viewBox="0 0 120 122" width="24" height="24">
  <path fill="#4285F4" d="M120 61.2c0-4.2-.4-8.2-1.2-12.1H61v22.9h33.1c-1.4 7.6-5.7 14-12.2 18.4v15.3h19.7c11.5-10.6 18.1-26.2 18.1-44.5z"/>
  <path fill="#34A853" d="M61 122c16.5 0 30.4-5.5 40.5-15l-19.7-15.3c-5.5 3.7-12.7 5.9-20.8 5.9-16 0-29.6-10.8-34.5-25.4H6.1v16.1C16.5 107.5 37.3 122 61 122z"/>
  <path fill="#FBBC05" d="M26.5 72.2c-1.3-3.8-2.1-7.9-2.1-12.2s.8-8.4 2.1-12.2V31.7H6.1C2.1 39.3 0 48.1 0 58c0 9.9 2.1 18.7 6.1 26.3l20.4-12.1z"/>
  <path fill="#EA4335" d="M61 23.9c8.9 0 17 3.1 23.3 9.3l17.5-17.5C91.3 5.4 76.8 0 61 0 37.3 0 16.5 14.5 6.1 31.7l20.4 12.1C31.4 34.7 45 23.9 61 23.9z"/>
</svg>
