<svg width="18" height="18" viewBox="0 0 18 18" fill="none" xmlns="http://www.w3.org/2000/svg">
<g clip-path="url(#clip0_486_4889)">
<mask id="mask0_486_4889" style="mask-type:luminance" maskUnits="userSpaceOnUse" x="0" y="0" width="18" height="18">
<path d="M18 0H0V18H18V0Z" fill="white"/>
</mask>
<g mask="url(#mask0_486_4889)">
<path d="M3.00098 11L11.001 1L10.001 7H15.001L7.00098 17L8.00098 11H3.00098Z" fill="none"/>
<path d="M11 1.00005L11.7398 1.12335C11.7959 0.786584 11.6175 0.45441 11.3058 0.315214C10.994 0.176019 10.6276 0.264932 10.4143 0.531527L11 1.00005ZM3.00001 11L2.41436 10.5315C2.23426 10.7566 2.19914 11.065 2.32403 11.3249C2.44892 11.5847 2.71171 11.75 3.00001 11.75V11ZM8.00001 11L8.73981 11.1233L8.88536 10.25H8.00001V11ZM7.00001 17L6.26021 16.8767C6.20409 17.2135 6.38248 17.5456 6.69423 17.6848C7.00597 17.824 7.37239 17.7351 7.58566 17.4685L7.00001 17ZM15 7.00005L15.5857 7.46857C15.7658 7.24344 15.8009 6.93501 15.676 6.67516C15.5511 6.41531 15.2883 6.25005 15 6.25005V7.00005ZM10 7.00005L9.26021 6.87675L9.11466 7.75005H10V7.00005ZM10.4143 0.531527L2.41436 10.5315L3.58566 11.4685L11.5857 1.46857L10.4143 0.531527ZM3.00001 11.75H8.00001V10.25H3.00001V11.75ZM7.26021 10.8767L6.26021 16.8767L7.73981 17.1233L8.73981 11.1233L7.26021 10.8767ZM7.58566 17.4685L15.5857 7.46857L14.4143 6.53153L6.41436 16.5315L7.58566 17.4685ZM15 6.25005H10V7.75005H15V6.25005ZM10.7398 7.12335L11.7398 1.12335L10.2602 0.876749L9.26021 6.87675L10.7398 7.12335Z"/>
</g>
</g>
<defs>
<clipPath id="clip0_486_4889">
<rect width="18" height="18" fill="white"/>
</clipPath>
</defs>
</svg>
