<svg width="20" height="20" viewBox="0 0 20 20" fill="none" xmlns="http://www.w3.org/2000/svg">
<g clip-path="url(#clip0_4_10880)">
<mask id="mask0_4_10880" style="mask-type:luminance" maskUnits="userSpaceOnUse" x="0" y="0" width="20" height="20">
<path d="M20 0H0V20H20V0Z" fill="white"/>
</mask>
<g mask="url(#mask0_4_10880)">
<path d="M13.9233 7.25566L12.7447 6.07715L8.8896 9.93233L7.25664 8.29937L6.07812 9.47788L8.8896 12.2894L13.9233 7.25566Z" fill="#111211"/>
<path fill-rule="evenodd" clip-rule="evenodd" d="M10.2778 0.324955C10.0981 0.261473 9.90215 0.261473 9.72249 0.324955L3.43596 2.54634C2.92529 2.72398 2.50013 3.24603 2.50013 3.79957L2.5 12.944L2.50027 12.959C2.52388 14.2728 3.26138 15.533 4.39451 16.1972L9.54203 19.5846C9.82004 19.7676 10.1802 19.7676 10.4582 19.5846L15.6058 16.1972C16.7389 15.533 17.4766 14.2728 17.5001 12.959V3.79957C17.5001 3.24601 17.075 2.72395 16.5642 2.54633L10.2778 0.324955ZM4.1668 12.9359V4.05575L10.0001 1.99451L15.8334 4.05575V12.9359C15.8164 13.741 15.3578 14.3652 14.7087 14.7923L10.0001 17.8909C8.42608 16.855 6.88169 15.7083 5.25 14.7667C4.60448 14.3941 4.18256 13.6809 4.1668 12.9359Z" fill="#111211"/>
</g>
</g>
<defs>
<clipPath id="clip0_4_10880">
<rect width="20" height="20" fill="white"/>
</clipPath>
</defs>
</svg>
