<svg width="20" height="20" viewBox="0 -2 20 24" fill="none" xmlns="http://www.w3.org/2000/svg">
<g clip-path="url(#clip0_711_9583)">
<path d="M9.57227 3.96322C9.67806 3.96322 9.73503 3.89811 9.7513 3.80046C9.99544 2.4821 9.97103 2.41699 11.3871 2.16472C11.4847 2.1403 11.5498 2.08333 11.5498 1.97754C11.5498 1.87988 11.4847 1.81477 11.3871 1.7985C9.97103 1.54622 9.99544 1.48112 9.7513 0.16276C9.73503 0.0651042 9.67806 0 9.57227 0C9.46648 0 9.40951 0.0651042 9.39323 0.16276C9.14909 1.48112 9.1735 1.54622 7.75749 1.7985C7.65169 1.81477 7.59473 1.87988 7.59473 1.97754C7.59473 2.08333 7.65169 2.1403 7.75749 2.16472C9.1735 2.41699 9.14909 2.4821 9.39323 3.80046C9.40951 3.89811 9.46648 3.96322 9.57227 3.96322Z"/>
<path d="M5.63314 9.56184C5.78776 9.56184 5.89356 9.45609 5.90983 9.30959C6.2028 7.13672 6.27604 7.13672 8.52213 6.70541C8.66048 6.68099 8.76628 6.58334 8.76628 6.42871C8.76628 6.28223 8.66048 6.17644 8.52213 6.16016C6.27604 5.84278 6.19466 5.76954 5.90983 3.56413C5.89356 3.40951 5.78776 3.30371 5.63314 3.30371C5.48665 3.30371 5.38086 3.40951 5.35644 3.57227C5.09603 5.74512 4.97396 5.73699 2.74414 6.16016C2.60579 6.18458 2.5 6.28223 2.5 6.42871C2.5 6.59148 2.60579 6.68099 2.77669 6.70541C4.99023 7.06348 5.09603 7.12044 5.35644 9.29326C5.38086 9.45609 5.48665 9.56184 5.63314 9.56184Z"/>
<path d="M11.1508 18.5628C11.3623 18.5628 11.5169 18.4082 11.5576 18.1885C12.1354 13.737 12.7621 13.0534 17.1728 12.5651C17.4008 12.5407 17.5553 12.3779 17.5553 12.1582C17.5553 11.9466 17.4008 11.7838 17.1728 11.7594C12.7621 11.2712 12.1354 10.5876 11.5576 6.12794C11.5169 5.9082 11.3623 5.76172 11.1508 5.76172C10.9392 5.76172 10.7845 5.9082 10.752 6.12794C10.1742 10.5876 9.53939 11.2712 5.13672 11.7594C4.90072 11.7838 4.74609 11.9466 4.74609 12.1582C4.74609 12.3779 4.90072 12.5407 5.13672 12.5651C9.53125 13.1429 10.1416 13.737 10.752 18.1885C10.7845 18.4082 10.9392 18.5628 11.1508 18.5628Z"/>
</g>
<defs>
<clipPath id="clip0_711_9583">
<rect width="20" height="20" fill="white"/>
</clipPath>
</defs>
</svg>
