<svg width="24" height="24" viewBox="0 0 24 24" fill="none" xmlns="http://www.w3.org/2000/svg">
<path d="M3.00001 11L20.2 5.99995L19.4 3.39995C19.1 2.39995 18 1.79995 16.9 2.09995L3.40001 6.09995C2.40001 6.39995 1.80001 7.49995 2.10001 8.59995L3.00001 11ZM3.00001 11H21V19C21 19.5304 20.7893 20.0391 20.4142 20.4142C20.0392 20.7892 19.5304 21 19 21H5.00001C4.46958 21 3.96087 20.7892 3.5858 20.4142C3.21073 20.0391 3.00001 19.5304 3.00001 19V11ZM6.20001 5.29995L9.30001 9.19995M12.4 3.39995L15.5 7.39995" stroke="#ffffff" stroke-width="1.5" stroke-linecap="round" stroke-linejoin="round"/>
</svg>
